<svg width="59" height="59" viewBox="0 0 59 59" fill="none" xmlns="http://www.w3.org/2000/svg">
<circle cx="29.5" cy="29.5" r="29.5" fill="#D64C4C"/>
<path d="M15.9784 18.7361L39.4125 41.6142M15.9784 18.7361C16.8502 17.7407 18.1525 17.1088 19.6075 17.1088H27.5295M15.9784 18.7361C15.2771 19.5367 14.8542 20.5724 14.8542 21.7036V38.5511C14.8542 41.0887 16.9823 43.1458 19.6075 43.1458H37.0359C39.661 43.1458 41.7891 41.0887 41.7891 38.5511V31.6589M27.5295 31.6589L17.2309 41.6142M38.7589 19.0616V18.9637M44.1459 18.9484C44.1459 22.3445 38.7589 26.8727 38.7589 26.8727C38.7589 26.8727 33.372 22.3445 33.372 18.9484C33.372 16.1349 35.7838 13.8542 38.7589 13.8542C41.7341 13.8542 44.1459 16.1349 44.1459 18.9484Z" stroke="white" stroke-width="2" stroke-linecap="round" stroke-linejoin="round"/>
</svg>
